<svg viewBox="0 0 192 192" xmlns="http://www.w3.org/2000/svg"><circle fill="#000" cx="96" cy="96" r="96"/><path fill="#1185fe" d="M95.883 108.714c25.932-42.188 48.563-65.857 71.182-67.61 7.247 1.665 9.427 2.467 10.878 9.506 3.348 10.054-2.492 46.667-4.461 58.751-5.631 16.314-20.655 21.029-37.202 21.997 15.086 6.093 16.917 7.891 20.101 11.722 7.206 6.352 5.592 22.931-5.257 30.321-7.198 7.721-18.558 11.625-24.834 12.621-6.554.347-7.399.613-13.316-3.798-7.093-7.096-9-10.395-16.836-29.941-3.733-.718-1.814-43.869-.255-43.569z"/><path fill="#1185fe" d="M95.973 108.73C70.041 66.542 47.41 42.873 24.791 41.12c-7.247 1.665-9.427 2.467-10.878 9.506-3.348 10.054 2.492 46.667 4.461 58.751 5.631 16.314 20.655 21.029 37.202 21.997-15.086 6.093-16.917 7.891-20.1 11.722-7.207 6.352-5.593 22.931 5.256 30.321 7.198 7.721 18.558 11.625 24.834 12.621 6.554.347 7.4.613 13.316-3.798 7.093-7.096 9.433-10.373 17.27-29.919.753.283 3.693-42.139-.179-43.591z"/></svg>